<svg height="480pt" viewBox="0 0 480 480" width="480pt" xmlns="http://www.w3.org/2000/svg"><path d="m240 8c-128.128906 0-232 103.871094-232 232s103.871094 232 232 232 232-103.871094 232-232-103.871094-232-232-232zm-8 376c-70.691406 0-128-57.308594-128-128s57.308594-128 128-128v128h128c0 70.691406-57.308594 128-128 128zm32-160v-128c70.691406 0 128 57.308594 128 128zm0 0" fill="#78b9eb"/><g fill="#006df0"><path d="m240 0c-132.546875 0-240 107.453125-240 240s107.453125 240 240 240 240-107.453125 240-240c-.148438-132.484375-107.515625-239.851562-240-240zm0 464c-123.710938 0-224-100.289062-224-224s100.289062-224 224-224 224 100.289062 224 224c-.140625 123.652344-100.347656 223.859375-224 224zm0 0"/><path d="m360 248h-120v-120c0-4.417969-3.582031-8-8-8-75.109375 0-136 60.890625-136 136s60.890625 136 136 136 136-60.890625 136-136c0-4.417969-3.582031-8-8-8zm-128 128c-64.734375.023438-117.820312-51.300781-119.976562-115.996094-2.160157-64.699218 47.386718-119.449218 111.976562-123.738281v119.734375c0 4.417969 3.582031 8 8 8h119.734375c-4.289063 62.992188-56.597656 111.917969-119.734375 112zm0 0"/><path d="m264 88c-4.417969 0-8 3.582031-8 8v128c0 4.417969 3.582031 8 8 8h128c4.417969 0 8-3.582031 8-8-.082031-75.074219-60.925781-135.917969-136-136zm8 128v-111.734375c59.9375 4.082031 107.652344 51.796875 111.734375 111.734375zm0 0"/></g></svg>