<svg height="512" viewBox="0 0 64 64" width="512" xmlns="http://www.w3.org/2000/svg"><g id="LayBag-briefcase-business-bagr_13" data-name="LayBag-briefcase-business-bagr 13"><g fill="#78b9eb"><path d="m60 22v3h-56v-3a6 6 0 0 1 6-6h44a6 6 0 0 1 6 6z"/><path d="m27 46h10v4h-10z"/><path d="m60 25v5.91a2.01 2.01 0 0 1 -.46 1.28c-.49.58-1.01 1.15-1.54 1.7a35.138 35.138 0 0 1 -4.67 4.11c-5.21 3.84-11.5 4.02-18.33 4.01-.99 0-1.99-.01-3-.01s-2.01.01-3 .01c-6.83.01-13.12-.17-18.33-4.01a35.138 35.138 0 0 1 -4.67-4.11c-.53-.55-1.05-1.12-1.54-1.7a2.01 2.01 0 0 1 -.46-1.28v-5.91z"/><path d="m44 4.88v8.12h-4v-4a1.97 1.97 0 0 0 -2.44-1.83 28.344 28.344 0 0 1 -5.56.54 28.344 28.344 0 0 1 -5.56-.54 1.97 1.97 0 0 0 -2.44 1.83v4h-4v-8.12a1.951 1.951 0 0 1 2-1.88h20a1.951 1.951 0 0 1 2 1.88z"/></g><path d="m54 15h-6v-1a2.006 2.006 0 0 0 -2-2h-1v-7.12a2.947 2.947 0 0 0 -3-2.88h-20a2.947 2.947 0 0 0 -3 2.88v7.12h-1a2.006 2.006 0 0 0 -2 2v1h-6a7.008 7.008 0 0 0 -7 7v8.91a2.964 2.964 0 0 0 .7 1.92c.42.51.86.99 1.3 1.46v24.71a3.009 3.009 0 0 0 3 3h48a3.009 3.009 0 0 0 3-3v-24.73c.44-.46.88-.94 1.3-1.44a2.964 2.964 0 0 0 .7-1.92v-8.91a7.008 7.008 0 0 0 -7-7zm-8-1v1h-8v-1zm-20-2h-1v-3a.833.833 0 0 1 .32-.64 1.1 1.1 0 0 1 .92-.21 30.167 30.167 0 0 0 11.52 0 1.1 1.1 0 0 1 .92.21.833.833 0 0 1 .32.64v3h-1a2.006 2.006 0 0 0 -2 2v1h-8v-1a2.006 2.006 0 0 0 -2-2zm-5-7.12a.958.958 0 0 1 1-.88h20a.958.958 0 0 1 1 .88v7.12h-2v-3a2.8 2.8 0 0 0 -1.05-2.19 3.079 3.079 0 0 0 -2.59-.62 28.017 28.017 0 0 1 -10.72 0 3.087 3.087 0 0 0 -2.59.62 2.8 2.8 0 0 0 -1.05 2.19v3h-2zm-3 9.12h8v1h-8zm39 45a1 1 0 0 1 -1 1h-48a1 1 0 0 1 -1-1v-22.74a35.288 35.288 0 0 0 3.08 2.55c5.2 3.83 11.37 4.19 17.92 4.2v1.99h-1a1 1 0 0 0 -1 1v4a1 1 0 0 0 1 1h1v2a1 1 0 0 0 .45.83l3 2a.975.975 0 0 0 1.1 0l3-2a1 1 0 0 0 .45-.83v-2h1a1 1 0 0 0 1-1v-4a1 1 0 0 0 -1-1h-1v-1.99c6.55-.01 12.72-.37 17.92-4.2a35.288 35.288 0 0 0 3.08-2.55zm-21-12v2h-8v-2zm-6-2v-1.99a.86.86 0 0 0 .16-.01h3.68a.86.86 0 0 0 .16.01v1.99zm4 6v1.46l-2 1.34-2-1.34v-1.46zm25-20.09a.985.985 0 0 1 -.22.63c-.49.58-.99 1.13-1.5 1.66a34.78 34.78 0 0 1 -4.54 3.99c-5.24 3.87-11.57 3.84-18.89 3.81h-3.7c-7.33.03-13.65.06-18.89-3.81a34.135 34.135 0 0 1 -4.54-4q-.765-.78-1.5-1.65a.985.985 0 0 1 -.22-.63v-4.91h54zm0-6.91h-54v-2a5 5 0 0 1 5-5h44a5 5 0 0 1 5 5z" fill="#006df0"/></g></svg>