<svg height="512" viewBox="0 0 64 64" width="512" xmlns="http://www.w3.org/2000/svg"><path d="m59.07 15h-27.71l-18.41 18.41-2.12 2.12a2 2 0 0 1 -2.83 0l-1.41-1.42a1.98 1.98 0 0 1 0-2.82l2.12-2.13 14.16-14.16h-17.94a1.973 1.973 0 0 0 -1.93 2v28h58v-28a1.973 1.973 0 0 0 -1.93-2zm-13 22.07a9.99 9.99 0 1 1 2.93-7.07 9.969 9.969 0 0 1 -2.93 7.07z" fill="#78b9eb"/><path d="m36.99 9.37 2.12-6.37-6.36 2.12 2.12 2.12z" fill="#78b9eb"/><path d="m31 51h-5l-1 6h14l-1-6z" fill="#78b9eb"/><g fill="#1a6fb0"><path d="m39 41a10.953 10.953 0 0 0 7.034-2.552l2.259 2.259a1 1 0 0 0 .707.293h9v-2h-8.586l-1.966-1.966a10.95 10.95 0 0 0 .507-13.4l3.388-2.634h4.657v-2h-5a1 1 0 0 0 -.614.21l-3.734 2.9a11 11 0 1 0 -7.652 18.89zm0-2a9.01 9.01 0 0 1 -8.941-8h8.527l6.025 6.025a8.948 8.948 0 0 1 -5.611 1.975zm0-18a8.951 8.951 0 0 1 6.052 2.359l-3.666 2.851 1.228 1.58 3.765-2.929a8.957 8.957 0 0 1 -.354 10.75l-6.318-6.318a1 1 0 0 0 -.707-.293h-8.941a9.01 9.01 0 0 1 8.941-8z"/><path d="m59.07 14h-25.3l3.93-3.928c.011-.011.015-.025.025-.037a1.021 1.021 0 0 0 .161-.242c.013-.028.029-.054.04-.084 0-.008.009-.015.012-.023l2.12-6.37a1 1 0 0 0 -1.268-1.265l-6.36 2.12v.014a.983.983 0 0 0 -.392.231l-9.581 9.584h-17.527a2.969 2.969 0 0 0 -2.93 3v32a2.969 2.969 0 0 0 2.93 3h19.89l-.667 4h-1.153a1 1 0 0 0 -.8.4l-3 4a1 1 0 0 0 .8 1.6h24a1 1 0 0 0 .8-1.6l-3-4a1 1 0 0 0 -.8-.4h-1.153l-.667-4h19.89a2.969 2.969 0 0 0 2.93-3v-32a2.969 2.969 0 0 0 -2.93-3zm-25.616-6.755-22.626 22.626-.707-.707 22.627-22.626zm-24.747 23.333 2.829 2.829-1.415 1.414a1.023 1.023 0 0 1 -1.413 0l-1.415-1.414a1 1 0 0 1 0-1.415zm4.243 1.415-.708-.708 22.625-22.624.706.708zm24.576-27.412-.975 2.93-1.9-1.9-.051-.054zm-32.596 11.419h15.527l-12.457 12.457-2.121 2.121a3 3 0 0 0 0 4.243l1.414 1.414a3 3 0 0 0 4.242 0l2.122-2.121 18.114-18.114h27.3a.98.98 0 0 1 .929 1v27h-56v-27a.98.98 0 0 1 .93-1zm37.07 44h-20l1.5-2h17zm-4.18-4h-11.64l.667-4h10.306zm21.25-6h-54.14a.98.98 0 0 1 -.93-1v-3h56v3a.98.98 0 0 1 -.93 1z"/><path d="m31 47h2v2h-2z"/><path d="m18 40h8v2h-8z"/><path d="m18 36h8v2h-8z"/><path d="m18 32h8v2h-8z"/><path d="m52 35h6v2h-6z"/><path d="m52 31h6v2h-6z"/><path d="m52 27h6v2h-6z"/></g></svg>