<svg xmlns="http://www.w3.org/2000/svg" viewBox="0 0 1277.8 136.49"><title>Logo</title><g id="Camada_2" data-name="Camada 2"><g id="Camada_1-2" data-name="Camada 1"><path d="M77.24.09H137V26.6H73.36q-17.23,0-26.13,6.34Q35.11,39.29,28.68,57.45a48.1,48.1,0,0,0-1.42,10.61q0,15.42,11.55,29,7.56,7.29,14.2,9.65Q60.29,110,73,110h64v26.5H76q-23.39,0-34.65-5.68-25.17-11-36.06-36A67.44,67.44,0,0,1,0,68.24q0-30.46,24.14-52Q39.94,4.25,52.72,2.08,59.26.1,77.24.09ZM65.69,55.18H137V81.4H65.69Z"/><path d="M226.27,63.26V83h-69.2V63.26Z"/><path d="M232.08.19H308q41.26,0,57.27,36.06a59.49,59.49,0,0,1,3.88,21.58q0,24-18.74,42-11.55,10.22-28.31,13.82a87.35,87.35,0,0,1-13.06.85l-49.6.57v21.39H231.89V88.12h75q14.68,0,21.49-5.49,8.71-5.58,12.5-18a29.78,29.78,0,0,0,.75-5.78V56q0-10.7-9.18-20.82-9.56-8.41-21.2-8.42H232.08Z"/><path d="M383.33.19h27.45V64.65q0,27.07,20.73,39.37,9.09,6,24.14,6h64.93v26.5h-64q-26,0-41.56-10.89Q410.69,123.43,402,115q-11.26-12.68-15.24-25.55-3.4-9.75-3.41-27.93Z"/><path d="M609,0h63V136.49H644.67V26.6l-24.42.09h-5.87q-20.45,0-22.72,1.71A38.63,38.63,0,0,0,571,42.5q-9.09,13-9.09,25.84,0,15.9,12.31,29.25,8.24,7.86,14.2,9.46,6,3,20.54,3h19v26.41H605.2q-25.37,0-42.88-13.35-12.68-10-16.94-18.17-10.61-16.84-10.6-34.45v-4q0-24.6,18.46-45.15Q564.4,10.52,571.5,7.67a68.24,68.24,0,0,1,14.11-5.4Q593.65,0,609,0Z"/><path d="M741.41,136.49V114.15A83.53,83.53,0,0,1,711.21,99q-11.26-10.12-14.67-16.85a65.86,65.86,0,0,1-7.29-16.28q-3-9.46-3-25.75V.19h27.45V41.36q0,18,7,27.74,1.41,3.12,9.08,9.94a39.49,39.49,0,0,0,50.17,0q7.67-6.83,9.09-9.94,7-9.75,7-27.74V.19h27.45V40.13q0,16.29-3,25.75a61.09,61.09,0,0,1-7.29,16.28q-3.4,6.72-14.57,16.85a84.56,84.56,0,0,1-30.29,15.14v22.34Z"/><path d="M914.9.09h59.73V26.6H911q-17.22,0-26.12,6.34-12.12,6.35-18.55,24.51a48.1,48.1,0,0,0-1.42,10.61q0,15.42,11.54,29,7.57,7.29,14.2,9.65,7.29,3.31,20,3.32h64v26.5h-61q-23.37,0-34.64-5.68-25.18-11-36.06-36a67.27,67.27,0,0,1-5.3-26.6q0-30.46,24.13-52Q877.61,4.25,890.39,2.08,896.92.1,914.9.09ZM903.36,55.18h71.27V81.4H903.36Z"/><path d="M989.11.09h87.65Q1100,.09,1113.11,14a34.19,34.19,0,0,1,8.14,10.6,44.56,44.56,0,0,1,5.11,20v3.88q0,15-13,29.25-8.33,8-15.14,10.22,17.22,18.38,17.22,48.56h-27.54v-2.08q0-22.34-18.08-35.5-10.32-7.29-27-7.29H989.11V65.31h89.35q14.67,0,19.88-14.48c.38-2,.63-3.6.76-4.92q0-8.05-6.72-14.58a19.55,19.55,0,0,0-12.31-4.54c0-.25-1.32-.38-4-.38h-87Z"/><path d="M1183.91.19h91.9v28h-92.76q-10.87,0-13.34,10.69v2q0,6.34,7.1,10.6a12.28,12.28,0,0,0,4.54.85H1228q18,0,24.42,3.69,15.91,7.11,22,21.68a49.09,49.09,0,0,1,3.41,17.51q0,20.44-19.12,34.45a47.32,47.32,0,0,1-13.06,5.59q-5.49,1.23-18.27,1.23h-86.7l-.1-28h93.14q11.74,0,15-11.55l.19-2.55q0-8.15-8-12.5a15.53,15.53,0,0,0-7.29-1.51h-52.34q-20.54,0-34.26-18a38.79,38.79,0,0,1-6-20.16v-3.7q0-21,20.45-33.22Q1169.9.18,1183.91.19Z"/></g></g></svg>